<svg xmlns="http://www.w3.org/2000/svg" xmlns:xlink="http://www.w3.org/1999/xlink" width="500" zoomAndPan="magnify" viewBox="0 0 375 374.999991" height="500" preserveAspectRatio="xMidYMid meet" version="1.0"><defs><clipPath id="id1"><path d="M 53.753906 33.445312 L 321.503906 33.445312 L 321.503906 289 L 53.753906 289 Z M 53.753906 33.445312 " clip-rule="nonzero"/></clipPath><clipPath id="id2"><path d="M 183 97 L 192 97 L 192 336.445312 L 183 336.445312 Z M 183 97 " clip-rule="nonzero"/></clipPath></defs><path fill="#fdfffa" d="M 184.972656 362.039062 C 137.699219 362.039062 93.183594 343.640625 59.78125 310.164062 C 26.304688 276.761719 7.90625 232.246094 7.90625 184.972656 C 7.90625 137.699219 26.304688 93.183594 59.78125 59.78125 C 93.183594 26.304688 137.699219 7.90625 184.972656 7.90625 C 232.246094 7.90625 276.761719 26.304688 310.164062 59.78125 C 343.640625 93.253906 362.039062 137.699219 362.039062 184.972656 C 362.039062 232.246094 343.640625 276.761719 310.164062 310.164062 C 276.761719 343.640625 232.246094 362.039062 184.972656 362.039062 Z M 184.972656 18.519531 C 140.527344 18.519531 98.703125 35.859375 67.28125 67.28125 C 35.859375 98.703125 18.519531 140.527344 18.519531 184.972656 C 18.519531 229.417969 35.859375 271.242188 67.28125 302.664062 C 98.703125 334.085938 140.527344 351.425781 184.972656 351.425781 C 229.417969 351.425781 271.242188 334.085938 302.664062 302.664062 C 334.085938 271.242188 351.425781 229.417969 351.425781 184.972656 C 351.425781 140.527344 334.085938 98.703125 302.664062 67.28125 C 271.242188 35.859375 229.417969 18.519531 184.972656 18.519531 Z M 184.972656 18.519531 " fill-opacity="1" fill-rule="nonzero"/><path fill="#49624a" d="M 186.597656 17.097656 C 92.984375 17.097656 17.097656 92.984375 17.097656 186.597656 C 17.097656 280.210938 92.984375 356.097656 186.597656 356.097656 C 280.210938 356.097656 356.097656 280.210938 356.097656 186.597656 C 356.097656 92.984375 280.210938 17.097656 186.597656 17.097656 " fill-opacity="1" fill-rule="nonzero"/><g clip-path="url(#id1)"><path fill="#fdfffa" d="M 320.09375 154.300781 L 245.355469 89.046875 L 245.355469 37.546875 C 245.355469 35.277344 243.519531 33.445312 241.246094 33.445312 C 238.96875 33.445312 237.132812 35.277344 237.132812 37.546875 L 237.132812 81.878906 L 191.414062 41.949219 C 189.875 40.601562 187.578125 40.601562 186.03125 41.929688 L 55.199219 154.277344 C 53.480469 155.753906 53.285156 158.347656 54.761719 160.0625 C 55.570312 161.007812 56.726562 161.492188 57.882812 161.492188 C 58.828125 161.492188 59.785156 161.171875 60.5625 160.503906 L 188.6875 50.46875 L 237.144531 92.773438 L 237.144531 284.722656 C 237.144531 286.996094 238.980469 288.828125 241.253906 288.828125 C 243.53125 288.828125 245.367188 286.996094 245.367188 284.722656 L 245.367188 99.953125 L 314.6875 160.480469 C 316.394531 161.964844 318.996094 161.792969 320.484375 160.097656 C 321.976562 158.394531 321.800781 155.800781 320.09375 154.300781 Z M 320.09375 154.300781 " fill-opacity="1" fill-rule="nonzero"/></g><path fill="#fdfffa" d="M 83.074219 178.609375 C 80.796875 178.609375 78.960938 180.441406 78.960938 182.714844 L 78.960938 223.378906 C 78.960938 225.652344 80.796875 227.484375 83.074219 227.484375 C 85.351562 227.484375 87.1875 225.652344 87.1875 223.378906 L 87.1875 182.714844 C 87.1875 180.453125 85.351562 178.609375 83.074219 178.609375 Z M 83.074219 178.609375 " fill-opacity="1" fill-rule="nonzero"/><path fill="#fdfffa" d="M 294.320312 178.609375 C 292.046875 178.609375 290.210938 180.441406 290.210938 182.714844 L 290.210938 223.378906 C 290.210938 225.652344 292.046875 227.484375 294.320312 227.484375 C 296.597656 227.484375 298.433594 225.652344 298.433594 223.378906 L 298.433594 182.714844 C 298.433594 180.453125 296.597656 178.609375 294.320312 178.609375 Z M 294.320312 178.609375 " fill-opacity="1" fill-rule="nonzero"/><path fill="#fdfffa" d="M 135.621094 130.464844 C 133.34375 130.464844 131.507812 132.296875 131.507812 134.566406 L 131.507812 268.320312 C 131.507812 270.59375 133.34375 272.425781 135.621094 272.425781 C 137.894531 272.425781 139.734375 270.59375 139.734375 268.320312 L 139.734375 134.566406 C 139.734375 132.296875 137.894531 130.464844 135.621094 130.464844 Z M 135.621094 130.464844 " fill-opacity="1" fill-rule="nonzero"/><g clip-path="url(#id2)"><path fill="#fdfffa" d="M 187.636719 97.117188 C 185.359375 97.117188 183.523438 98.949219 183.523438 101.222656 L 183.523438 332.351562 C 183.523438 334.625 185.359375 336.457031 187.636719 336.457031 C 189.910156 336.457031 191.746094 334.625 191.746094 332.351562 L 191.746094 101.210938 C 191.734375 98.949219 189.898438 97.117188 187.636719 97.117188 Z M 187.636719 97.117188 " fill-opacity="1" fill-rule="nonzero"/></g></svg>