<svg xmlns="http://www.w3.org/2000/svg" xmlns:xlink="http://www.w3.org/1999/xlink" width="500" zoomAndPan="magnify" viewBox="0 0 375 374.999991" height="500" preserveAspectRatio="xMidYMid meet" version="1.0"><defs><g/><clipPath id="id1"><path d="M 36.84375 109.21875 L 170.34375 109.21875 L 170.34375 237 L 36.84375 237 Z M 36.84375 109.21875 " clip-rule="nonzero"/></clipPath><clipPath id="id2"><path d="M 101 141 L 106 141 L 106 260.71875 L 101 260.71875 Z M 101 141 " clip-rule="nonzero"/></clipPath></defs><path fill="#49624a" d="M 186.597656 17.097656 C 92.984375 17.097656 17.097656 92.984375 17.097656 186.597656 C 17.097656 280.210938 92.984375 356.097656 186.597656 356.097656 C 280.210938 356.097656 356.097656 280.210938 356.097656 186.597656 C 356.097656 92.984375 280.210938 17.097656 186.597656 17.097656 " fill-opacity="1" fill-rule="nonzero"/><path fill="#fdfff5" d="M 184.972656 362.039062 C 137.699219 362.039062 93.183594 343.640625 59.78125 310.164062 C 26.304688 276.761719 7.90625 232.246094 7.90625 184.972656 C 7.90625 137.699219 26.304688 93.183594 59.78125 59.78125 C 93.183594 26.304688 137.699219 7.90625 184.972656 7.90625 C 232.246094 7.90625 276.761719 26.304688 310.164062 59.78125 C 343.640625 93.253906 362.039062 137.699219 362.039062 184.972656 C 362.039062 232.246094 343.640625 276.761719 310.164062 310.164062 C 276.761719 343.640625 232.246094 362.039062 184.972656 362.039062 Z M 184.972656 18.519531 C 140.527344 18.519531 98.703125 35.859375 67.28125 67.28125 C 35.859375 98.703125 18.519531 140.527344 18.519531 184.972656 C 18.519531 229.417969 35.859375 271.242188 67.28125 302.664062 C 98.703125 334.085938 140.527344 351.425781 184.972656 351.425781 C 229.417969 351.425781 271.242188 334.085938 302.664062 302.664062 C 334.085938 271.242188 351.425781 229.417969 351.425781 184.972656 C 351.425781 140.527344 334.085938 98.703125 302.664062 67.28125 C 271.242188 35.859375 229.417969 18.519531 184.972656 18.519531 Z M 184.972656 18.519531 " fill-opacity="1" fill-rule="nonzero"/><g clip-path="url(#id1)"><path fill="#fdfff5" d="M 169.632812 169.644531 L 132.375 137.019531 L 132.375 111.269531 C 132.375 110.132812 131.457031 109.21875 130.324219 109.21875 C 129.191406 109.21875 128.273438 110.132812 128.273438 111.269531 L 128.273438 133.433594 L 105.480469 113.472656 C 104.714844 112.796875 103.570312 112.796875 102.796875 113.460938 L 37.570312 169.636719 C 36.714844 170.371094 36.617188 171.667969 37.351562 172.527344 C 37.757812 173 38.332031 173.242188 38.90625 173.242188 C 39.378906 173.242188 39.859375 173.082031 40.246094 172.746094 L 104.121094 117.730469 L 128.28125 138.882812 L 128.28125 234.859375 C 128.28125 235.992188 129.195312 236.910156 130.328125 236.910156 C 131.464844 236.910156 132.378906 235.992188 132.378906 234.859375 L 132.378906 142.472656 L 166.9375 172.734375 C 167.789062 173.480469 169.085938 173.390625 169.828125 172.546875 C 170.574219 171.691406 170.484375 170.394531 169.632812 169.644531 Z M 169.632812 169.644531 " fill-opacity="1" fill-rule="nonzero"/></g><path fill="#fdfff5" d="M 51.46875 181.800781 C 50.332031 181.800781 49.417969 182.71875 49.417969 183.851562 L 49.417969 204.1875 C 49.417969 205.320312 50.332031 206.238281 51.46875 206.238281 C 52.601562 206.238281 53.519531 205.320312 53.519531 204.1875 L 53.519531 183.851562 C 53.519531 182.722656 52.601562 181.800781 51.46875 181.800781 Z M 51.46875 181.800781 " fill-opacity="1" fill-rule="nonzero"/><path fill="#fdfff5" d="M 156.785156 181.800781 C 155.652344 181.800781 154.734375 182.71875 154.734375 183.851562 L 154.734375 204.1875 C 154.734375 205.320312 155.652344 206.238281 156.785156 206.238281 C 157.921875 206.238281 158.835938 205.320312 158.835938 204.1875 L 158.835938 183.851562 C 158.835938 182.722656 157.921875 181.800781 156.785156 181.800781 Z M 156.785156 181.800781 " fill-opacity="1" fill-rule="nonzero"/><path fill="#fdfff5" d="M 77.664062 157.726562 C 76.53125 157.726562 75.613281 158.644531 75.613281 159.78125 L 75.613281 226.65625 C 75.613281 227.792969 76.53125 228.707031 77.664062 228.707031 C 78.800781 228.707031 79.714844 227.792969 79.714844 226.65625 L 79.714844 159.78125 C 79.714844 158.644531 78.800781 157.726562 77.664062 157.726562 Z M 77.664062 157.726562 " fill-opacity="1" fill-rule="nonzero"/><g clip-path="url(#id2)"><path fill="#fdfff5" d="M 103.597656 141.054688 C 102.460938 141.054688 101.546875 141.972656 101.546875 143.105469 L 101.546875 258.671875 C 101.546875 259.808594 102.460938 260.722656 103.597656 260.722656 C 104.730469 260.722656 105.648438 259.808594 105.648438 258.671875 L 105.648438 143.101562 C 105.640625 141.972656 104.726562 141.054688 103.597656 141.054688 Z M 103.597656 141.054688 " fill-opacity="1" fill-rule="nonzero"/></g><g fill="#fdfff5" fill-opacity="1"><g transform="translate(159.469343, 154.305854)"><g><path d="M 30.46875 -12.109375 C 30.613281 -12.109375 30.6875 -12.003906 30.6875 -11.796875 C 30.6875 -11.597656 30.613281 -11.460938 30.46875 -11.390625 C 30.113281 -11.242188 29.75 -11.117188 29.375 -11.015625 C 29.007812 -10.910156 28.671875 -10.773438 28.359375 -10.609375 C 27.640625 -10.210938 27.28125 -9.582031 27.28125 -8.71875 L 27.28125 -2.359375 C 27.28125 -2.078125 26.59375 -1.691406 25.21875 -1.203125 C 23.851562 -0.722656 22.738281 -0.375 21.875 -0.15625 C 17.851562 0.832031 14.257812 0.726562 11.09375 -0.46875 C 7.457031 -1.863281 4.882812 -4.359375 3.375 -7.953125 C 2.625 -9.742188 2.25 -11.53125 2.25 -13.3125 C 2.25 -15.09375 2.425781 -16.585938 2.78125 -17.796875 C 3.84375 -21.492188 6.082031 -24.335938 9.5 -26.328125 C 11.71875 -27.628906 14.054688 -28.28125 16.515625 -28.28125 C 18.972656 -28.28125 21.582031 -27.785156 24.34375 -26.796875 C 24.84375 -26.617188 25.128906 -26.53125 25.203125 -26.53125 L 25.4375 -26.53125 L 26.21875 -26.71875 L 26.703125 -26.71875 C 26.847656 -26.71875 26.921875 -26.644531 26.921875 -26.5 L 26.921875 -20 C 26.921875 -19.75 26.773438 -19.625 26.484375 -19.625 L 26.40625 -19.625 C 26.15625 -19.65625 25.988281 -19.988281 25.90625 -20.625 C 25.875 -20.757812 25.851562 -20.859375 25.84375 -20.921875 C 24.539062 -24.992188 21.789062 -27.03125 17.59375 -27.03125 C 14.238281 -27.03125 11.5625 -25.757812 9.5625 -23.21875 C 7.5625 -20.6875 6.5625 -17.664062 6.5625 -14.15625 C 6.5625 -10.65625 7.566406 -7.5625 9.578125 -4.875 C 11.585938 -2.1875 14.351562 -0.84375 17.875 -0.84375 C 19.6875 -0.84375 21.175781 -1.125 22.34375 -1.6875 C 22.800781 -1.90625 23.15625 -2.179688 23.40625 -2.515625 L 23.40625 -7.875 C 23.40625 -9.082031 23.054688 -9.96875 22.359375 -10.53125 C 21.671875 -11.101562 20.40625 -11.390625 18.5625 -11.390625 C 18.414062 -11.390625 18.34375 -11.507812 18.34375 -11.75 C 18.34375 -11.988281 18.414062 -12.109375 18.5625 -12.109375 Z M 30.46875 -12.109375 "/></g></g></g><g fill="#fdfff5" fill-opacity="1"><g transform="translate(193.726423, 154.305854)"><g><path d="M 1.015625 0 C 0.910156 0 0.859375 -0.128906 0.859375 -0.390625 L 0.859375 -0.625 C 0.859375 -0.726562 0.910156 -0.78125 1.015625 -0.78125 C 1.097656 -0.78125 1.222656 -0.789062 1.390625 -0.8125 C 1.554688 -0.84375 1.726562 -0.867188 1.90625 -0.890625 C 2.09375 -0.921875 2.265625 -0.953125 2.421875 -0.984375 C 2.578125 -1.015625 2.6875 -1.039062 2.75 -1.0625 C 4.082031 -1.351562 4.75 -2.109375 4.75 -3.328125 L 4.75 -23.953125 C 4.75 -25.066406 4.300781 -25.859375 3.40625 -26.328125 C 2.863281 -26.617188 2.289062 -26.765625 1.6875 -26.765625 L 0.9375 -26.765625 C 0.832031 -26.765625 0.78125 -26.816406 0.78125 -26.921875 L 0.78125 -27.390625 C 0.78125 -27.492188 0.859375 -27.546875 1.015625 -27.546875 L 11.734375 -27.828125 L 13.71875 -27.828125 C 16.019531 -27.671875 17.945312 -26.832031 19.5 -25.3125 C 21.0625 -23.800781 21.84375 -21.9375 21.84375 -19.71875 C 21.84375 -17.5 20.914062 -15.769531 19.0625 -14.53125 C 18.488281 -14.15625 17.867188 -13.816406 17.203125 -13.515625 L 23.125 -3.84375 C 24.15625 -2.15625 25.535156 -0.96875 27.265625 -0.28125 C 27.410156 -0.238281 27.484375 -0.144531 27.484375 0 C 27.484375 0.320312 27.269531 0.484375 26.84375 0.484375 C 23.90625 0.484375 21.570312 -0.628906 19.84375 -2.859375 C 19.46875 -3.347656 19.09375 -3.898438 18.71875 -4.515625 L 13.65625 -12.4375 L 9 -12.65625 L 8.84375 -12.65625 C 8.65625 -12.65625 8.5625 -12.566406 8.5625 -12.390625 L 8.5625 -3.375 C 8.5625 -2.664062 8.757812 -2.132812 9.15625 -1.78125 C 9.5625 -1.425781 10.257812 -1.1875 11.25 -1.0625 C 11.507812 -1.019531 11.828125 -0.960938 12.203125 -0.890625 C 12.585938 -0.816406 12.847656 -0.78125 12.984375 -0.78125 C 13.117188 -0.78125 13.1875 -0.726562 13.1875 -0.625 L 13.1875 -0.15625 C 13.1875 -0.0507812 13.132812 0 13.03125 0 Z M 10.140625 -26.796875 C 9.984375 -26.796875 9.816406 -26.789062 9.640625 -26.78125 C 9.460938 -26.78125 9.238281 -26.773438 8.96875 -26.765625 C 8.695312 -26.765625 8.5625 -26.660156 8.5625 -26.453125 L 8.5625 -14.609375 L 8.59375 -14.03125 C 8.632812 -13.75 8.757812 -13.601562 8.96875 -13.59375 L 10.953125 -13.484375 C 14.617188 -13.484375 16.828125 -14.785156 17.578125 -17.390625 C 17.828125 -18.203125 17.953125 -19.140625 17.953125 -20.203125 C 17.953125 -22.253906 17.3125 -23.875 16.03125 -25.0625 C 14.75 -26.25 13.109375 -26.84375 11.109375 -26.84375 C 10.929688 -26.84375 10.765625 -26.835938 10.609375 -26.828125 C 10.453125 -26.816406 10.296875 -26.804688 10.140625 -26.796875 Z M 10.140625 -26.796875 "/></g></g></g><g fill="#fdfff5" fill-opacity="1"><g transform="translate(224.038575, 154.305854)"><g><path d="M 0.140625 -0.15625 L 0.140625 -0.703125 C 0.140625 -0.804688 0.191406 -0.859375 0.296875 -0.859375 L 0.71875 -0.859375 C 1.269531 -0.898438 1.832031 -0.921875 2.40625 -0.921875 C 2.976562 -0.929688 3.5 -1.003906 3.96875 -1.140625 C 5.03125 -1.453125 5.5625 -2.234375 5.5625 -3.484375 L 5.5625 -24.0625 C 5.5625 -25.351562 4.800781 -26.175781 3.28125 -26.53125 C 2.851562 -26.613281 2.414062 -26.691406 1.96875 -26.765625 L 1.5625 -26.765625 C 1.457031 -26.765625 1.40625 -26.816406 1.40625 -26.921875 L 1.40625 -27.390625 C 1.40625 -27.492188 1.457031 -27.546875 1.5625 -27.546875 L 20.140625 -27.546875 C 20.367188 -27.546875 20.535156 -27.5 20.640625 -27.40625 C 20.742188 -27.320312 20.8125 -27.140625 20.84375 -26.859375 L 21.1875 -21.1875 C 21.1875 -21.0625 21.085938 -21 20.890625 -21 C 20.703125 -21 20.5625 -21.054688 20.46875 -21.171875 C 20.394531 -21.304688 20.296875 -21.78125 20.171875 -22.59375 C 20.046875 -23.414062 19.816406 -24.097656 19.484375 -24.640625 C 19.160156 -25.191406 18.59375 -25.539062 17.78125 -25.6875 L 9.625 -25.6875 C 9.457031 -25.6875 9.375 -25.601562 9.375 -25.4375 L 9.375 -15.328125 C 9.375 -15.203125 9.441406 -15.140625 9.578125 -15.140625 L 16.328125 -15.140625 C 18.078125 -15.140625 18.953125 -16.15625 18.953125 -18.1875 C 18.953125 -18.289062 19.003906 -18.34375 19.109375 -18.34375 L 19.578125 -18.34375 C 19.679688 -18.34375 19.734375 -18.289062 19.734375 -18.1875 L 19.734375 -9.828125 C 19.734375 -9.722656 19.679688 -9.671875 19.578125 -9.671875 L 19.109375 -9.671875 C 19.003906 -9.671875 18.953125 -9.722656 18.953125 -9.828125 C 18.953125 -11.753906 18.390625 -12.867188 17.265625 -13.171875 C 16.953125 -13.242188 16.617188 -13.28125 16.265625 -13.28125 L 9.578125 -13.28125 C 9.441406 -13.28125 9.375 -13.21875 9.375 -13.09375 L 9.375 -3.578125 C 9.375 -2.597656 9.820312 -2.046875 10.71875 -1.921875 C 10.976562 -1.878906 11.253906 -1.859375 11.546875 -1.859375 L 18.046875 -1.859375 C 19.390625 -1.859375 20.429688 -2.453125 21.171875 -3.640625 C 21.703125 -4.484375 22.03125 -5.453125 22.15625 -6.546875 C 22.1875 -6.910156 22.378906 -7.09375 22.734375 -7.09375 C 22.890625 -7.09375 22.96875 -7.007812 22.96875 -6.84375 L 22.328125 -0.28125 C 22.242188 -0.09375 22.148438 0 22.046875 0 L 0.296875 0 C 0.191406 0 0.140625 -0.0507812 0.140625 -0.15625 Z M 0.140625 -0.15625 "/></g></g></g><g fill="#fdfff5" fill-opacity="1"><g transform="translate(251.323675, 154.305854)"><g><path d="M 0.140625 -0.15625 L 0.140625 -0.703125 C 0.140625 -0.804688 0.191406 -0.859375 0.296875 -0.859375 L 0.71875 -0.859375 C 1.269531 -0.898438 1.832031 -0.921875 2.40625 -0.921875 C 2.976562 -0.929688 3.5 -1.003906 3.96875 -1.140625 C 5.03125 -1.453125 5.5625 -2.234375 5.5625 -3.484375 L 5.5625 -24.0625 C 5.5625 -25.351562 4.800781 -26.175781 3.28125 -26.53125 C 2.851562 -26.613281 2.414062 -26.691406 1.96875 -26.765625 L 1.5625 -26.765625 C 1.457031 -26.765625 1.40625 -26.816406 1.40625 -26.921875 L 1.40625 -27.390625 C 1.40625 -27.492188 1.457031 -27.546875 1.5625 -27.546875 L 20.140625 -27.546875 C 20.367188 -27.546875 20.535156 -27.5 20.640625 -27.40625 C 20.742188 -27.320312 20.8125 -27.140625 20.84375 -26.859375 L 21.1875 -21.1875 C 21.1875 -21.0625 21.085938 -21 20.890625 -21 C 20.703125 -21 20.5625 -21.054688 20.46875 -21.171875 C 20.394531 -21.304688 20.296875 -21.78125 20.171875 -22.59375 C 20.046875 -23.414062 19.816406 -24.097656 19.484375 -24.640625 C 19.160156 -25.191406 18.59375 -25.539062 17.78125 -25.6875 L 9.625 -25.6875 C 9.457031 -25.6875 9.375 -25.601562 9.375 -25.4375 L 9.375 -15.328125 C 9.375 -15.203125 9.441406 -15.140625 9.578125 -15.140625 L 16.328125 -15.140625 C 18.078125 -15.140625 18.953125 -16.15625 18.953125 -18.1875 C 18.953125 -18.289062 19.003906 -18.34375 19.109375 -18.34375 L 19.578125 -18.34375 C 19.679688 -18.34375 19.734375 -18.289062 19.734375 -18.1875 L 19.734375 -9.828125 C 19.734375 -9.722656 19.679688 -9.671875 19.578125 -9.671875 L 19.109375 -9.671875 C 19.003906 -9.671875 18.953125 -9.722656 18.953125 -9.828125 C 18.953125 -11.753906 18.390625 -12.867188 17.265625 -13.171875 C 16.953125 -13.242188 16.617188 -13.28125 16.265625 -13.28125 L 9.578125 -13.28125 C 9.441406 -13.28125 9.375 -13.21875 9.375 -13.09375 L 9.375 -3.578125 C 9.375 -2.597656 9.820312 -2.046875 10.71875 -1.921875 C 10.976562 -1.878906 11.253906 -1.859375 11.546875 -1.859375 L 18.046875 -1.859375 C 19.390625 -1.859375 20.429688 -2.453125 21.171875 -3.640625 C 21.703125 -4.484375 22.03125 -5.453125 22.15625 -6.546875 C 22.1875 -6.910156 22.378906 -7.09375 22.734375 -7.09375 C 22.890625 -7.09375 22.96875 -7.007812 22.96875 -6.84375 L 22.328125 -0.28125 C 22.242188 -0.09375 22.148438 0 22.046875 0 L 0.296875 0 C 0.191406 0 0.140625 -0.0507812 0.140625 -0.15625 Z M 0.140625 -0.15625 "/></g></g></g><g fill="#fdfff5" fill-opacity="1"><g transform="translate(278.608774, 154.305854)"><g><path d="M 1.328125 0 C 1.222656 0 1.171875 -0.0507812 1.171875 -0.15625 L 1.171875 -0.625 C 1.171875 -0.726562 1.238281 -0.78125 1.375 -0.78125 L 1.8125 -0.78125 C 2.53125 -0.78125 3.019531 -0.847656 3.28125 -0.984375 C 4.25 -1.453125 4.734375 -2.738281 4.734375 -4.84375 L 4.734375 -25.140625 C 4.734375 -26.015625 3.882812 -26.535156 2.1875 -26.703125 C 1.8125 -26.742188 1.546875 -26.765625 1.390625 -26.765625 C 1.242188 -26.765625 1.171875 -26.816406 1.171875 -26.921875 L 1.171875 -27.390625 C 1.171875 -27.492188 1.222656 -27.546875 1.328125 -27.546875 L 8.484375 -27.546875 L 27.015625 -7.046875 C 27.078125 -6.984375 27.117188 -6.9375 27.140625 -6.90625 C 27.171875 -6.875 27.210938 -6.859375 27.265625 -6.859375 C 27.328125 -6.859375 27.359375 -6.914062 27.359375 -7.03125 L 27.359375 -20.484375 C 27.359375 -23.078125 27.144531 -24.769531 26.71875 -25.5625 C 26.289062 -26.363281 25.425781 -26.765625 24.125 -26.765625 L 23.125 -26.765625 C 23.019531 -26.765625 22.96875 -26.816406 22.96875 -26.921875 L 22.96875 -27.390625 C 22.96875 -27.492188 23.019531 -27.546875 23.125 -27.546875 L 33.28125 -27.546875 C 33.382812 -27.546875 33.4375 -27.492188 33.4375 -27.390625 L 33.4375 -26.921875 C 33.4375 -26.816406 33.242188 -26.765625 32.859375 -26.765625 C 32.472656 -26.765625 31.84375 -26.539062 30.96875 -26.09375 C 30.09375 -25.65625 29.65625 -25.109375 29.65625 -24.453125 L 29.65625 -0.5625 C 29.65625 -0.28125 29.613281 -0.078125 29.53125 0.046875 C 29.457031 0.171875 29.269531 0.234375 28.96875 0.234375 C 28.675781 0.234375 28.457031 0.171875 28.3125 0.046875 C 28.175781 -0.0664062 28.007812 -0.234375 27.8125 -0.453125 L 7.671875 -22.78125 C 7.546875 -22.90625 7.429688 -22.96875 7.328125 -22.96875 C 7.265625 -22.96875 7.234375 -22.90625 7.234375 -22.78125 L 7.234375 -3.28125 C 7.234375 -2.09375 8.171875 -1.3125 10.046875 -0.9375 C 10.566406 -0.832031 10.960938 -0.78125 11.234375 -0.78125 C 11.503906 -0.78125 11.640625 -0.726562 11.640625 -0.625 L 11.640625 -0.15625 C 11.640625 -0.0507812 11.585938 0 11.484375 0 Z M 1.328125 0 "/></g></g></g><g fill="#fdfff5" fill-opacity="1"><g transform="translate(181.517953, 207.389415)"><g><path d="M 0.890625 0 C 0.796875 0 0.75 -0.0507812 0.75 -0.15625 L 0.75 -0.59375 C 0.75 -0.695312 0.796875 -0.75 0.890625 -0.75 L 1.34375 -0.75 C 2.40625 -0.75 3.332031 -0.96875 4.125 -1.40625 C 4.445312 -1.59375 4.710938 -1.878906 4.921875 -2.265625 C 5.128906 -2.660156 5.234375 -3.097656 5.234375 -3.578125 L 5.234375 -23.21875 C 5.234375 -23.976562 4.738281 -24.5625 3.75 -24.96875 C 3.050781 -25.269531 2.316406 -25.421875 1.546875 -25.421875 L 1.125 -25.421875 C 1.03125 -25.421875 0.984375 -25.46875 0.984375 -25.5625 L 0.984375 -26.015625 C 0.984375 -26.109375 1.03125 -26.15625 1.125 -26.15625 L 13.6875 -26.15625 C 13.789062 -26.15625 13.84375 -26.109375 13.84375 -26.015625 L 13.84375 -25.5625 C 13.84375 -25.46875 13.789062 -25.421875 13.6875 -25.421875 L 12.890625 -25.421875 C 11.617188 -25.421875 10.492188 -25.238281 9.515625 -24.875 C 9.234375 -24.78125 9.050781 -24.617188 8.96875 -24.390625 C 8.882812 -24.160156 8.84375 -23.769531 8.84375 -23.21875 L 8.84375 -2.640625 C 8.875 -2.421875 8.988281 -2.21875 9.1875 -2.03125 C 9.382812 -1.851562 9.609375 -1.765625 9.859375 -1.765625 L 17.1875 -1.765625 C 18.28125 -1.765625 19.359375 -2.414062 20.421875 -3.71875 C 20.710938 -4.0625 21.066406 -4.519531 21.484375 -5.09375 C 21.910156 -5.664062 22.171875 -5.988281 22.265625 -6.0625 C 22.660156 -6.363281 22.859375 -6.359375 22.859375 -6.046875 C 22.859375 -5.972656 22.835938 -5.898438 22.796875 -5.828125 L 20 -0.328125 C 19.882812 -0.109375 19.753906 0 19.609375 0 Z M 0.890625 0 "/></g></g></g><g fill="#fdfff5" fill-opacity="1"><g transform="translate(206.972484, 207.389415)"><g><path d="M 9.875 -0.15625 C 9.875 -0.0507812 9.820312 0 9.71875 0 L 0.234375 0 C 0.140625 0 0.09375 -0.0507812 0.09375 -0.15625 L 0.09375 -0.59375 C 0.09375 -0.695312 0.171875 -0.75 0.328125 -0.75 C 2.023438 -0.820312 3.171875 -1.722656 3.765625 -3.453125 L 11.34375 -25.359375 C 11.351562 -25.390625 11.359375 -25.421875 11.359375 -25.453125 L 11.15625 -26.0625 C 11.15625 -26.125 11.175781 -26.15625 11.21875 -26.15625 L 14.9375 -26.15625 C 14.957031 -26.144531 14.988281 -26.132812 15.03125 -26.125 C 15.082031 -26.113281 15.117188 -26.078125 15.140625 -26.015625 L 22.984375 -3.984375 C 23.160156 -3.648438 23.300781 -3.347656 23.40625 -3.078125 C 23.507812 -2.804688 23.628906 -2.5625 23.765625 -2.34375 C 24.066406 -1.832031 24.554688 -1.441406 25.234375 -1.171875 C 25.804688 -0.890625 26.328125 -0.75 26.796875 -0.75 C 26.890625 -0.75 26.9375 -0.691406 26.9375 -0.578125 L 26.9375 -0.15625 C 26.9375 -0.0507812 26.890625 0 26.796875 0 L 15.4375 0 C 15.34375 0 15.296875 -0.0507812 15.296875 -0.15625 L 15.296875 -0.59375 C 15.296875 -0.695312 15.519531 -0.757812 15.96875 -0.78125 C 16.425781 -0.800781 16.804688 -0.828125 17.109375 -0.859375 C 18.828125 -1.035156 19.6875 -1.613281 19.6875 -2.59375 C 19.6875 -2.664062 19.675781 -2.753906 19.65625 -2.859375 L 16.84375 -10.765625 C 16.832031 -10.785156 16.8125 -10.835938 16.78125 -10.921875 C 16.625 -11.347656 16.363281 -11.5625 16 -11.5625 L 9.40625 -11.5625 C 9.03125 -11.5625 8.738281 -11.359375 8.53125 -10.953125 C 8.5 -10.859375 8.484375 -10.804688 8.484375 -10.796875 L 5.703125 -2.65625 L 5.703125 -2.484375 C 5.703125 -2.160156 5.867188 -1.867188 6.203125 -1.609375 C 6.953125 -1.035156 7.960938 -0.75 9.234375 -0.75 L 9.71875 -0.75 C 9.820312 -0.75 9.875 -0.695312 9.875 -0.59375 Z M 15.359375 -13.625 C 15.585938 -13.625 15.703125 -13.710938 15.703125 -13.890625 C 15.703125 -13.992188 15.675781 -14.109375 15.625 -14.234375 L 12.859375 -21.84375 C 12.734375 -22.175781 12.640625 -22.34375 12.578125 -22.34375 C 12.515625 -22.34375 12.414062 -22.171875 12.28125 -21.828125 L 9.6875 -14.234375 C 9.632812 -14.109375 9.609375 -13.972656 9.609375 -13.828125 C 9.609375 -13.691406 9.703125 -13.625 9.890625 -13.625 Z M 15.359375 -13.625 "/></g></g></g><g fill="#fdfff5" fill-opacity="1"><g transform="translate(236.471105, 207.389415)"><g><path d="M 11.9375 -0.15625 C 11.9375 -0.0507812 11.882812 0 11.78125 0 L 0.875 0 C 0.789062 0 0.75 -0.0507812 0.75 -0.15625 L 0.75 -0.5 C 0.75 -0.601562 1.007812 -0.660156 1.53125 -0.671875 C 2.050781 -0.679688 2.691406 -0.875 3.453125 -1.25 C 4.222656 -1.625 4.609375 -2.195312 4.609375 -2.96875 L 4.609375 -23.1875 C 4.609375 -24.59375 3.367188 -25.367188 0.890625 -25.515625 C 0.796875 -25.515625 0.75 -25.5625 0.75 -25.65625 L 0.75 -26.015625 C 0.75 -26.109375 0.789062 -26.15625 0.875 -26.15625 L 11.78125 -26.15625 C 11.882812 -26.15625 11.9375 -26.109375 11.9375 -26.015625 L 11.9375 -25.65625 C 11.9375 -25.582031 11.675781 -25.546875 11.15625 -25.546875 C 10.644531 -25.546875 10.082031 -25.398438 9.46875 -25.109375 C 8.632812 -24.710938 8.21875 -24.0625 8.21875 -23.15625 L 8.21875 -14.96875 C 8.21875 -13.882812 8.320312 -13.34375 8.53125 -13.34375 C 9.0625 -13.34375 9.734375 -13.675781 10.546875 -14.34375 C 11.367188 -15.019531 12.09375 -15.71875 12.71875 -16.4375 C 13.351562 -17.15625 13.988281 -18.003906 14.625 -18.984375 C 15.269531 -19.972656 15.710938 -20.644531 15.953125 -21 C 16.878906 -22.3125 17.34375 -23.296875 17.34375 -23.953125 C 17.34375 -24.617188 17.0625 -25.066406 16.5 -25.296875 C 16.125 -25.441406 15.59375 -25.515625 14.90625 -25.515625 L 14.71875 -25.515625 C 14.613281 -25.515625 14.5625 -25.5625 14.5625 -25.65625 L 14.5625 -26.015625 C 14.5625 -26.109375 14.613281 -26.15625 14.71875 -26.15625 L 25.4375 -26.15625 C 25.539062 -26.15625 25.59375 -26.109375 25.59375 -26.015625 L 25.59375 -25.65625 C 25.59375 -25.507812 25.515625 -25.4375 25.359375 -25.4375 C 23.773438 -25.382812 22.617188 -25.175781 21.890625 -24.8125 C 21.160156 -24.445312 20.578125 -24.046875 20.140625 -23.609375 C 19.703125 -23.179688 19.222656 -22.53125 18.703125 -21.65625 C 17.117188 -18.96875 15.539062 -16.820312 13.96875 -15.21875 C 13.300781 -14.53125 12.957031 -14.109375 12.9375 -13.953125 C 13 -13.828125 13.503906 -13.332031 14.453125 -12.46875 C 16.828125 -10.289062 19.320312 -7.34375 21.9375 -3.625 C 22.90625 -2.195312 24.179688 -1.316406 25.765625 -0.984375 C 26.816406 -0.734375 27.484375 -0.609375 27.765625 -0.609375 C 28.046875 -0.609375 28.1875 -0.5625 28.1875 -0.46875 L 28.1875 -0.15625 C 28.1875 -0.0507812 28.132812 0 28.03125 0 L 15.90625 0 C 15.800781 0 15.75 -0.0507812 15.75 -0.15625 L 15.75 -0.5 C 15.75 -0.601562 15.960938 -0.671875 16.390625 -0.703125 C 17.785156 -0.828125 18.484375 -1.238281 18.484375 -1.9375 C 18.390625 -2.625 17.144531 -4.332031 14.75 -7.0625 C 14.320312 -7.550781 13.867188 -8.09375 13.390625 -8.6875 C 11.515625 -11 9.972656 -12.15625 8.765625 -12.15625 L 8.40625 -12.15625 C 8.28125 -12.15625 8.21875 -12.066406 8.21875 -11.890625 L 8.21875 -3.203125 C 8.21875 -1.472656 9.40625 -0.609375 11.78125 -0.609375 C 11.882812 -0.609375 11.9375 -0.5625 11.9375 -0.46875 Z M 11.9375 -0.15625 "/></g></g></g><g fill="#fdfff5" fill-opacity="1"><g transform="translate(267.212634, 207.389415)"><g><path d="M 0.125 -0.15625 L 0.125 -0.671875 C 0.125 -0.765625 0.175781 -0.8125 0.28125 -0.8125 L 0.6875 -0.8125 C 1.207031 -0.851562 1.738281 -0.875 2.28125 -0.875 C 2.820312 -0.882812 3.316406 -0.953125 3.765625 -1.078125 C 4.773438 -1.367188 5.28125 -2.109375 5.28125 -3.296875 L 5.28125 -22.859375 C 5.28125 -24.085938 4.5625 -24.867188 3.125 -25.203125 C 2.707031 -25.285156 2.289062 -25.359375 1.875 -25.421875 L 1.484375 -25.421875 C 1.390625 -25.421875 1.34375 -25.46875 1.34375 -25.5625 L 1.34375 -26.015625 C 1.34375 -26.109375 1.390625 -26.15625 1.484375 -26.15625 L 19.125 -26.15625 C 19.351562 -26.15625 19.515625 -26.113281 19.609375 -26.03125 C 19.710938 -25.957031 19.773438 -25.785156 19.796875 -25.515625 L 20.125 -20.125 C 20.125 -20.007812 20.03125 -19.953125 19.84375 -19.953125 C 19.664062 -19.953125 19.535156 -20.003906 19.453125 -20.109375 C 19.367188 -20.234375 19.269531 -20.6875 19.15625 -21.46875 C 19.039062 -22.25 18.828125 -22.898438 18.515625 -23.421875 C 18.203125 -23.941406 17.660156 -24.269531 16.890625 -24.40625 L 9.140625 -24.40625 C 8.984375 -24.40625 8.90625 -24.320312 8.90625 -24.15625 L 8.90625 -14.5625 C 8.90625 -14.4375 8.96875 -14.375 9.09375 -14.375 L 15.515625 -14.375 C 17.171875 -14.375 18 -15.34375 18 -17.28125 C 18 -17.375 18.046875 -17.421875 18.140625 -17.421875 L 18.59375 -17.421875 C 18.6875 -17.421875 18.734375 -17.375 18.734375 -17.28125 L 18.734375 -9.328125 C 18.734375 -9.234375 18.6875 -9.1875 18.59375 -9.1875 L 18.140625 -9.1875 C 18.046875 -9.1875 18 -9.234375 18 -9.328125 C 18 -11.160156 17.46875 -12.21875 16.40625 -12.5 C 16.101562 -12.582031 15.785156 -12.625 15.453125 -12.625 L 9.09375 -12.625 C 8.96875 -12.625 8.90625 -12.5625 8.90625 -12.4375 L 8.90625 -3.390625 C 8.90625 -2.460938 9.332031 -1.9375 10.1875 -1.8125 C 10.4375 -1.78125 10.695312 -1.765625 10.96875 -1.765625 L 17.140625 -1.765625 C 18.421875 -1.765625 19.410156 -2.328125 20.109375 -3.453125 C 20.617188 -4.253906 20.929688 -5.175781 21.046875 -6.21875 C 21.078125 -6.5625 21.257812 -6.734375 21.59375 -6.734375 C 21.75 -6.734375 21.828125 -6.65625 21.828125 -6.5 L 21.203125 -0.265625 C 21.128906 -0.0859375 21.046875 0 20.953125 0 L 0.28125 0 C 0.175781 0 0.125 -0.0507812 0.125 -0.15625 Z M 0.125 -0.15625 "/></g></g></g><g fill="#fdfff5" fill-opacity="1"><g transform="translate(151.28782, 243.426649)"><g><path d="M 3.71875 0 L 1.625 0 L 1.625 -12.40625 L 3.71875 -12.40625 Z M 3.71875 0 "/></g></g></g><g fill="#fdfff5" fill-opacity="1"><g transform="translate(161.963713, 243.426649)"><g><path d="M 12.390625 0 L 10.34375 0 L 3.71875 -8.90625 L 3.71875 0 L 1.625 0 L 1.625 -12.40625 L 3.6875 -12.40625 L 10.34375 -3.5 L 10.34375 -12.40625 L 12.390625 -12.40625 Z M 12.390625 0 "/></g></g></g><g fill="#fdfff5" fill-opacity="1"><g transform="translate(181.327549, 243.426649)"><g><path d="M 7.171875 0 L 5 0 L 0.046875 -12.40625 L 2.3125 -12.40625 L 6.140625 -2.328125 L 10 -12.40625 L 12.1875 -12.40625 Z M 7.171875 0 "/></g></g></g><g fill="#fdfff5" fill-opacity="1"><g transform="translate(198.882873, 243.426649)"><g><path d="M 10.5 -10.53125 L 3.71875 -10.53125 L 3.71875 -7.1875 L 9.796875 -7.1875 L 9.796875 -5.296875 L 3.71875 -5.296875 L 3.71875 -1.875 L 10.71875 -1.875 L 10.71875 0 L 1.625 0 L 1.625 -12.40625 L 10.5 -12.40625 Z M 10.5 -10.53125 "/></g></g></g><g fill="#fdfff5" fill-opacity="1"><g transform="translate(215.83536, 243.426649)"><g><path d="M 5.703125 -12.5 C 7.316406 -12.5 8.769531 -12.070312 10.0625 -11.21875 L 9.1875 -9.375 C 7.914062 -10.144531 6.703125 -10.53125 5.546875 -10.53125 C 4.921875 -10.53125 4.425781 -10.414062 4.0625 -10.1875 C 3.707031 -9.96875 3.53125 -9.648438 3.53125 -9.234375 C 3.53125 -8.828125 3.691406 -8.476562 4.015625 -8.1875 C 4.347656 -7.894531 4.765625 -7.679688 5.265625 -7.546875 C 5.765625 -7.410156 6.300781 -7.238281 6.875 -7.03125 C 7.457031 -6.820312 7.992188 -6.601562 8.484375 -6.375 C 8.984375 -6.144531 9.394531 -5.785156 9.71875 -5.296875 C 10.050781 -4.804688 10.21875 -4.210938 10.21875 -3.515625 C 10.21875 -2.421875 9.78125 -1.546875 8.90625 -0.890625 C 8.039062 -0.242188 6.914062 0.078125 5.53125 0.078125 C 4.582031 0.078125 3.664062 -0.0976562 2.78125 -0.453125 C 1.894531 -0.816406 1.125 -1.296875 0.46875 -1.890625 L 1.359375 -3.703125 C 1.992188 -3.128906 2.6875 -2.679688 3.4375 -2.359375 C 4.1875 -2.046875 4.894531 -1.890625 5.5625 -1.890625 C 6.300781 -1.890625 6.875 -2.023438 7.28125 -2.296875 C 7.6875 -2.566406 7.890625 -2.9375 7.890625 -3.40625 C 7.890625 -3.832031 7.722656 -4.1875 7.390625 -4.46875 C 7.066406 -4.757812 6.65625 -4.972656 6.15625 -5.109375 C 5.65625 -5.242188 5.113281 -5.410156 4.53125 -5.609375 C 3.957031 -5.804688 3.421875 -6.015625 2.921875 -6.234375 C 2.429688 -6.453125 2.019531 -6.800781 1.6875 -7.28125 C 1.351562 -7.769531 1.1875 -8.359375 1.1875 -9.046875 C 1.1875 -10.097656 1.597656 -10.9375 2.421875 -11.5625 C 3.253906 -12.1875 4.347656 -12.5 5.703125 -12.5 Z M 5.703125 -12.5 "/></g></g></g><g fill="#fdfff5" fill-opacity="1"><g transform="translate(232.185006, 243.426649)"><g><path d="M 10.109375 -10.53125 L 6.171875 -10.53125 L 6.171875 0 L 4.078125 0 L 4.078125 -10.53125 L 0.15625 -10.53125 L 0.15625 -12.40625 L 10.109375 -12.40625 Z M 10.109375 -10.53125 "/></g></g></g><g fill="#fdfff5" fill-opacity="1"><g transform="translate(247.772242, 243.426649)"><g><path d="M 14.75 0 L 12.828125 0 L 12.796875 -9.28125 L 8.890625 -1.296875 L 7.515625 -1.296875 L 3.59375 -9.28125 L 3.59375 0 L 1.625 0 L 1.625 -12.40625 L 4.109375 -12.40625 L 8.21875 -4.171875 L 12.296875 -12.40625 L 14.75 -12.40625 Z M 14.75 0 "/></g></g></g><g fill="#fdfff5" fill-opacity="1"><g transform="translate(269.494225, 243.426649)"><g><path d="M 10.5 -10.53125 L 3.71875 -10.53125 L 3.71875 -7.1875 L 9.796875 -7.1875 L 9.796875 -5.296875 L 3.71875 -5.296875 L 3.71875 -1.875 L 10.71875 -1.875 L 10.71875 0 L 1.625 0 L 1.625 -12.40625 L 10.5 -12.40625 Z M 10.5 -10.53125 "/></g></g></g><g fill="#fdfff5" fill-opacity="1"><g transform="translate(286.446711, 243.426649)"><g><path d="M 12.390625 0 L 10.34375 0 L 3.71875 -8.90625 L 3.71875 0 L 1.625 0 L 1.625 -12.40625 L 3.6875 -12.40625 L 10.34375 -3.5 L 10.34375 -12.40625 L 12.390625 -12.40625 Z M 12.390625 0 "/></g></g></g><g fill="#fdfff5" fill-opacity="1"><g transform="translate(305.810548, 243.426649)"><g><path d="M 10.109375 -10.53125 L 6.171875 -10.53125 L 6.171875 0 L 4.078125 0 L 4.078125 -10.53125 L 0.15625 -10.53125 L 0.15625 -12.40625 L 10.109375 -12.40625 Z M 10.109375 -10.53125 "/></g></g></g><g fill="#fdfff5" fill-opacity="1"><g transform="translate(321.39779, 243.426649)"><g><path d="M 5.703125 -12.5 C 7.316406 -12.5 8.769531 -12.070312 10.0625 -11.21875 L 9.1875 -9.375 C 7.914062 -10.144531 6.703125 -10.53125 5.546875 -10.53125 C 4.921875 -10.53125 4.425781 -10.414062 4.0625 -10.1875 C 3.707031 -9.96875 3.53125 -9.648438 3.53125 -9.234375 C 3.53125 -8.828125 3.691406 -8.476562 4.015625 -8.1875 C 4.347656 -7.894531 4.765625 -7.679688 5.265625 -7.546875 C 5.765625 -7.410156 6.300781 -7.238281 6.875 -7.03125 C 7.457031 -6.820312 7.992188 -6.601562 8.484375 -6.375 C 8.984375 -6.144531 9.394531 -5.785156 9.71875 -5.296875 C 10.050781 -4.804688 10.21875 -4.210938 10.21875 -3.515625 C 10.21875 -2.421875 9.78125 -1.546875 8.90625 -0.890625 C 8.039062 -0.242188 6.914062 0.078125 5.53125 0.078125 C 4.582031 0.078125 3.664062 -0.0976562 2.78125 -0.453125 C 1.894531 -0.816406 1.125 -1.296875 0.46875 -1.890625 L 1.359375 -3.703125 C 1.992188 -3.128906 2.6875 -2.679688 3.4375 -2.359375 C 4.1875 -2.046875 4.894531 -1.890625 5.5625 -1.890625 C 6.300781 -1.890625 6.875 -2.023438 7.28125 -2.296875 C 7.6875 -2.566406 7.890625 -2.9375 7.890625 -3.40625 C 7.890625 -3.832031 7.722656 -4.1875 7.390625 -4.46875 C 7.066406 -4.757812 6.65625 -4.972656 6.15625 -5.109375 C 5.65625 -5.242188 5.113281 -5.410156 4.53125 -5.609375 C 3.957031 -5.804688 3.421875 -6.015625 2.921875 -6.234375 C 2.429688 -6.453125 2.019531 -6.800781 1.6875 -7.28125 C 1.351562 -7.769531 1.1875 -8.359375 1.1875 -9.046875 C 1.1875 -10.097656 1.597656 -10.9375 2.421875 -11.5625 C 3.253906 -12.1875 4.347656 -12.5 5.703125 -12.5 Z M 5.703125 -12.5 "/></g></g></g></svg>